# Blender 4.1.1
# www.blender.org
mtllib eBullet.mtl
o Cube
v -1.000000 0.000000 0.000000
v 1.000000 0.000000 0.000000
v 0.000000 -1.000000 0.000000
v 0.000000 1.000000 -0.000000
v 0.000000 -0.000000 -1.000000
v 0.000000 0.000000 1.000000
v 0.333333 -0.500000 -0.333333
v -0.333333 -0.500000 -0.333333
v 0.333333 -0.500000 0.333333
v -0.333333 -0.500000 0.333333
v -0.333333 0.500000 -0.333333
v 0.333333 0.500000 -0.333333
v -0.333333 0.500000 0.333333
v 0.333333 0.500000 0.333333
vn -0.0000 0.5547 0.8321
vn 0.6000 -0.8000 -0.0000
vn -0.6000 0.8000 -0.0000
vn 0.6000 0.8000 -0.0000
vn 0.8321 0.5547 -0.0000
vn -0.0000 0.8000 -0.6000
vn -0.6000 -0.8000 -0.0000
vn 0.8321 -0.5547 -0.0000
vn -0.0000 -0.8000 -0.6000
vn -0.8944 -0.0000 -0.4472
vn -0.0000 0.5547 -0.8321
vn -0.4472 -0.0000 -0.8944
vn -0.0000 -0.8000 0.6000
vn -0.8321 0.5547 -0.0000
vn -0.0000 0.8000 0.6000
vn 0.8944 -0.0000 -0.4472
vn 0.4472 -0.0000 -0.8944
vn 0.4472 -0.0000 0.8944
vn 0.8944 -0.0000 0.4472
vn -0.8944 -0.0000 0.4472
vn -0.4472 -0.0000 0.8944
vn -0.0000 -0.5547 0.8321
vn -0.0000 -0.5547 -0.8321
vn -0.8321 -0.5547 -0.0000
vt 0.348254 0.181898
vt 0.196284 0.121109
vt 0.327063 0.014519
vt 0.174088 0.632810
vt 0.014519 0.480839
vt 0.234877 0.480839
vt 0.516599 0.167079
vt 0.357030 0.015108
vt 0.577388 0.015108
vt 0.166557 0.014519
vt 0.166557 0.234877
vt 0.014586 0.174088
vt 0.035777 0.341467
vt 0.572244 0.245296
vt 0.572244 0.465654
vt 0.420274 0.404866
vt 0.365384 0.693376
vt 0.524953 0.541405
vt 0.585742 0.693376
vt 0.341467 0.611619
vt 0.752898 0.135651
vt 0.752898 0.356009
vt 0.600927 0.295220
vt 0.099180 0.664919
vt 0.235954 0.868809
vt 0.015597 0.868809
vt 0.441465 0.572244
vt 0.319538 0.664919
vt 0.283734 0.300186
vt 0.344522 0.452156
vt 0.124164 0.452156
vt 0.683978 0.145887
vt 0.196284 0.341467
vt 0.866720 0.783136
vt 0.662830 0.646363
vt 0.866720 0.562779
vt 0.662830 0.866720
vt 0.565979 0.723396
vt 0.482395 0.927286
vt 0.345621 0.723396
vt 0.262037 0.927286
vt 0.781874 0.015596
vt 0.985764 0.099180
vt 0.781874 0.235954
vt 0.985764 0.319538
vt 0.451112 0.321377
vt 0.622119 0.462599
vt 0.692332 0.562597
s 0
usemtl Material.001
f 13/1/1 14/2/1 4/3/1
f 7/4/2 2/5/2 9/6/2
f 11/7/3 1/8/3 13/9/3
f 2/10/4 12/11/4 14/12/4
f 14/12/5 12/11/5 4/13/5
f 5/14/6 11/15/6 12/16/6
f 1/17/7 8/18/7 10/19/7
f 7/4/8 9/6/8 3/20/8
f 5/21/9 7/22/9 8/23/9
f 8/24/10 11/25/10 5/26/10
f 12/16/11 11/15/11 4/27/11
f 8/24/12 1/28/12 11/25/12
f 10/29/13 9/30/13 6/31/13
f 11/7/14 13/9/14 4/32/14
f 14/2/15 13/1/15 6/33/15
f 12/34/16 7/35/16 5/36/16
f 2/37/17 7/35/17 12/34/17
f 2/38/18 14/39/18 9/40/18
f 6/41/19 9/40/19 14/39/19
f 6/42/20 13/43/20 10/44/20
f 10/44/21 13/43/21 1/45/21
f 9/30/22 10/29/22 3/46/22
f 8/23/23 7/22/23 3/47/23
f 10/19/24 8/18/24 3/48/24
