# Blender 4.1.1
# www.blender.org
mtllib pShooter.mtl
o Cube
v 1.236645 0.618323 -1.000000
v 1.236645 -0.618323 -1.000000
v 1.000000 0.206635 1.000000
v 1.000000 -0.206635 1.000000
v -1.236645 0.618323 -1.000000
v -1.236645 -0.618323 -1.000000
v -1.000000 0.206635 1.000000
v -1.000000 -0.206635 1.000000
v -1.000000 -0.500000 -0.333333
v -1.000000 -0.500000 0.333333
v 1.000000 0.500000 -0.333333
v 1.000000 0.500000 0.333333
v -1.000000 0.500000 0.333333
v -1.000000 0.500000 -0.333333
v 1.000000 -0.500000 0.333333
v 1.000000 -0.500000 -0.333333
v 0.412215 -0.618323 -1.000000
v -0.412215 -0.618323 -1.000000
v 0.333333 0.206635 2.000000
v -0.333333 0.206635 2.000000
v -0.333333 -0.206635 2.000000
v 0.333333 -0.206635 2.000000
v -0.412215 0.618323 -1.000000
v 0.412215 0.618323 -1.000000
v 0.333333 -0.500000 -0.333333
v -0.333333 -0.500000 -0.333333
v 0.333333 -0.500000 0.333333
v -0.333333 -0.500000 0.333333
v -0.333333 0.500000 -0.333333
v 0.333333 0.500000 -0.333333
v -0.333333 0.500000 0.333333
v 0.333333 0.500000 0.333333
v 1.236645 0.618323 -1.600000
v 1.236645 -0.618323 -1.600000
v 0.412215 0.618323 -1.600000
v 0.412215 -0.618323 -1.600000
v -0.412215 -0.618323 -1.600000
v -1.236645 -0.618323 -1.600000
v -1.236645 0.618323 -1.600000
v -0.412215 0.618323 -1.600000
v 2.000000 0.062450 -0.333333
v 2.000000 0.062450 0.333333
v 2.000000 -0.062450 0.333333
v 2.000000 -0.062450 -0.333333
v -2.000000 -0.062450 -0.333333
v -2.000000 -0.062450 0.333333
v -2.000000 0.062450 0.333333
v -2.000000 0.062450 -0.333333
vn -0.1799 0.9540 0.2399
vn -0.8321 -0.0000 0.5547
vn -0.9424 -0.0000 0.3345
vn 0.1799 -0.9540 0.2399
vn 1.0000 -0.0000 -0.0000
vn -0.0000 1.0000 -0.0000
vn 0.9424 -0.0000 0.3345
vn -0.0000 -0.0000 -1.0000
vn -0.0000 -0.9846 0.1748
vn -0.0000 -1.0000 -0.0000
vn -1.0000 -0.0000 -0.0000
vn -0.0000 0.9846 0.1748
vn -0.1799 -0.9540 0.2399
vn -0.0000 -0.9849 0.1734
vn 0.8321 -0.0000 0.5547
vn -0.0000 -0.0000 1.0000
vn 0.1799 0.9540 0.2399
vn -0.0000 0.9849 0.1734
vn 0.4009 -0.9161 -0.0000
vn 0.4009 0.9161 -0.0000
vn -0.4009 0.9161 -0.0000
vn -0.4009 -0.9161 -0.0000
vt 0.378444 0.729479
vt 0.427047 0.726531
vt 0.430471 0.779741
vt 0.382322 0.853761
vt 0.297447 0.917400
vt 0.324635 0.907644
vt 0.353009 0.986711
vt 0.325821 0.996468
vt 0.062580 0.260317
vt 0.134921 0.238174
vt 0.159145 0.286729
vt 0.069685 0.314112
vt 0.181760 0.780764
vt 0.220753 0.754508
vt 0.253333 0.794474
vt 0.252848 0.883983
vt 0.284481 0.733846
vt 0.280521 0.784718
vt 0.320045 0.635023
vt 0.263592 0.638782
vt 0.253768 0.595864
vt 0.316069 0.588429
vt 0.182162 0.661774
vt 0.275976 0.687804
vt 0.199101 0.711751
vt 0.245105 0.718566
vt 0.243587 0.720010
vt 0.132100 0.692767
vt 0.155441 0.739133
vt 0.009993 0.012683
vt 0.039889 0.003532
vt 0.075874 0.045264
vt 0.003532 0.067407
vt 0.072090 0.178287
vt 0.081125 0.175521
vt 0.379018 0.631956
vt 0.438280 0.628560
vt 0.424058 0.678205
vt 0.375799 0.680822
vt 0.327175 0.682978
vt 0.330135 0.731683
vt 0.071623 0.793784
vt 0.113405 0.766404
vt 0.140604 0.808153
vt 0.098891 0.835372
vt 0.028826 0.761216
vt 0.080395 0.727129
vt 0.172431 0.330134
vt 0.082970 0.357517
vt 0.114511 0.460562
vt 0.203972 0.433179
vt 0.222227 0.492819
vt 0.132767 0.520202
vt 0.212107 0.912073
vt 0.128408 0.880836
vt 0.308895 0.863785
vt 0.281707 0.873542
vt 0.333486 0.855428
vt 0.146052 0.563607
vt 0.235513 0.536224
vt 0.164307 0.623247
vt 0.110176 0.653372
vt 0.190686 0.389774
vt 0.101226 0.417157
vt 0.004018 0.723686
vt 0.055587 0.689598
vt 0.376546 0.588826
vt 0.435808 0.585430
vt 0.247645 0.725515
vt 0.246116 0.726955
vt 0.057328 0.130059
vt 0.066363 0.127294
vt 0.503183 0.673311
vt 0.506172 0.721638
vt 0.030800 0.880017
vt 0.003532 0.838430
s 0
usemtl Material
f 31/1/1 13/2/1 7/3/1 20/4/1
f 21/5/2 20/6/2 7/7/2 8/8/2
f 9/9/3 14/10/3 5/11/3 6/12/3
f 27/13/4 15/14/4 4/15/4 22/16/4
f 15/14/5 12/17/5 3/18/5 4/15/5
f 24/19/6 1/20/6 33/21/6 35/22/6
f 2/23/7 1/20/7 11/24/7 16/25/7
f 16/25/8 11/24/8 41/26/8 44/27/8
f 17/28/9 2/23/9 16/25/9 25/29/9
f 25/29/10 16/25/10 15/14/10 27/13/10
f 8/30/11 7/31/11 13/32/11 10/33/11
f 14/10/8 9/9/8 45/34/8 48/35/8
f 23/36/12 5/37/12 14/38/12 29/39/12
f 29/39/6 14/38/6 13/2/6 31/1/6
f 11/24/6 30/40/6 32/41/6 12/17/6
f 30/40/6 29/39/6 31/1/6 32/41/6
f 1/20/12 24/19/12 30/40/12 11/24/12
f 24/19/12 23/36/12 29/39/12 30/40/12
f 9/42/10 26/43/10 28/44/10 10/45/10
f 26/43/10 25/29/10 27/13/10 28/44/10
f 6/46/9 18/47/9 26/43/9 9/42/9
f 18/47/9 17/28/9 25/29/9 26/43/9
f 6/12/11 5/11/11 39/48/11 38/49/11
f 18/50/8 23/51/8 24/52/8 17/53/8
f 10/45/13 28/44/13 21/54/13 8/55/13
f 28/44/14 27/13/14 22/16/14 21/54/14
f 4/15/15 3/18/15 19/56/15 22/57/15
f 22/57/16 19/56/16 20/6/16 21/5/16
f 12/17/17 32/41/17 19/58/17 3/18/17
f 32/41/18 31/1/18 20/4/18 19/58/18
f 36/59/8 35/60/8 33/21/8 34/61/8
f 2/23/10 17/28/10 36/62/10 34/61/10
f 1/20/5 2/23/5 34/61/5 33/21/5
f 17/53/11 24/52/11 35/60/11 36/59/11
f 38/49/8 39/48/8 40/63/8 37/64/8
f 18/47/10 6/46/10 38/65/10 37/66/10
f 5/37/6 23/36/6 40/67/6 39/68/6
f 23/51/5 18/50/5 37/64/5 40/63/5
f 44/27/5 41/26/5 42/69/5 43/70/5
f 12/17/16 15/14/16 43/70/16 42/69/16
f 15/14/19 16/25/19 44/27/19 43/70/19
f 11/24/20 12/17/20 42/69/20 41/26/20
f 46/71/11 47/72/11 48/35/11 45/34/11
f 13/2/21 14/38/21 48/73/21 47/74/21
f 9/42/22 10/45/22 46/75/22 45/76/22
f 10/33/16 13/32/16 47/72/16 46/71/16
